# xmcd CD database file
#
# Track frame offsets:
#	150
#	26830
#	41607
#	58165
#	89682
#	107787
#	134460
#	148672
#	162190
#	175152
#
# Disc length: 2989 seconds
#
# Revision: 0
# Processed by: cddbd v1.5PL3 Copyright (c) Steve Scherf et al.
# Submitted via: CDex 1.50beta8
#
DISCID=900bab0a
DTITLE=和田アキ子 - １０周年記念全国縦断ディナーショー
DYEAR=1900
DGENRE=Pop
TTITLE0=オープニング〜ゲット・イット・イン
TTITLE1=ラブ・ウィル・キープ・アス・トゥゲザー
TTITLE2=フィーリング
TTITLE3=ビートルズ・メドレー〜サムシング〜アンド・アイ・ラブ・ハー〜イエスタデイ〜キャント・バイ・ミー・ラヴ〜サムシング
TTITLE4=和田アキ子ヒット・メドレー〜どしゃぶりの雨の中で〜夜明けの夢〜笑って許して〜天使になれない
TTITLE5=ロックン・ロール’７７〜トラブル〜ダイアリー〜ルシア〜オー！キャロル〜ダイアナ
TTITLE6=二杯目のお酒
TTITLE7=サマータイム
TTITLE8=イフ
TTITLE9=シュビレーション〜あの鐘をならすのはあなた
EXTD=
EXTT0=
EXTT1=
EXTT2=
EXTT3=
EXTT4=
EXTT5=
EXTT6=
EXTT7=
EXTT8=
EXTT9=
PLAYORDER=
